<?xml version="1.0" standalone="no"?>
<!DOCTYPE svg PUBLIC "-//W3C//DTD SVG 20010904//EN"
 "http://www.w3.org/TR/2001/REC-SVG-20010904/DTD/svg10.dtd">
<svg version="1.0" xmlns="http://www.w3.org/2000/svg"
 width="300.000000pt" height="300.000000pt" viewBox="0 0 300.000000 300.000000"
 preserveAspectRatio="xMidYMid meet">
<metadata>
Created by potrace 1.11, written by Peter Selinger 2001-2013
</metadata>
<g transform="translate(0.000000,300.000000) scale(0.100000,-0.100000)"
fill="#000000" stroke="none">
<path d="M328 2919 c-119 -28 -229 -120 -287 -239 l-36 -75 -3 -1075 c-2 -711
1 -1091 8 -1123 27 -127 116 -237 240 -296 l75 -36 1145 -3 c758 -2 1161 1
1193 8 127 27 237 116 296 240 l36 75 0 1105 0 1105 -36 75 c-59 122 -166 211
-290 239 -55 13 -2288 13 -2341 0z m1632 -1009 l0 -120 145 0 145 0 0 -55 0
-55 -146 0 -145 0 3 -282 c3 -303 6 -320 55 -339 14 -5 72 -12 129 -16 l104
-6 0 -55 0 -54 -132 4 c-149 5 -201 20 -243 69 -43 52 -48 88 -52 392 l-5 287
-49 0 -49 0 0 55 0 55 50 0 50 0 0 120 0 120 70 0 70 0 0 -120z m-568 -137
c75 -33 148 -112 179 -191 14 -38 23 -89 27 -154 l5 -98 -324 -2 -324 -3 3
-35 c9 -107 74 -201 164 -240 94 -40 260 -29 387 26 29 13 55 24 57 24 2 0 4
-29 4 -65 l0 -64 -82 -27 c-74 -25 -99 -28 -223 -28 -124 -1 -146 2 -198 22
-163 66 -244 190 -254 387 -14 252 113 437 325 475 79 15 187 3 254 -27z"/>
<path d="M1127 1674 c-86 -27 -167 -134 -167 -221 l0 -23 250 0 250 0 0 33 c0
59 -29 123 -75 166 -66 61 -155 76 -258 45z"/>
</g>
</svg>
